<svg xmlns="http://www.w3.org/2000/svg" viewBox="0 0 800 400">
  <defs>
    <linearGradient id="g2" x1="0" y1="0" x2="1" y2="1">
      <stop offset="0%" stop-color="#1a5276"/>
      <stop offset="100%" stop-color="#48c9b0"/>
    </linearGradient>
  </defs>
  <rect width="800" height="400" fill="url(#g2)"/>
  <g transform="translate(540,70)" fill="none" stroke="rgba(255,255,255,0.15)" stroke-width="2.5" stroke-linecap="round">
    <path d="M50 230 L50 180 Q50 50 130 80 L160 90 L160 200 Q100 170 50 230Z"/>
    <path d="M75 230 L140 200 L140 95 L100 85"/>
    <line x1="130" y1="80" x2="130" y2="200"/>
    <circle cx="90" cy="60" r="12"/>
    <circle cx="85" cy="73" r="12"/>
    <circle cx="95" cy="73" r="12"/>
  </g>
  <g transform="translate(60,80)" fill="none" stroke="rgba(255,255,255,0.1)" stroke-width="2">
    <rect x="0" y="0" width="90" height="120" rx="6"/>
    <rect x="100" y="0" width="90" height="120" rx="6"/>
    <rect x="200" y="0" width="90" height="120" rx="6"/>
    <line x1="15" y1="40" x2="75" y2="40"/>
    <line x1="15" y1="65" x2="60" y2="65"/>
    <line x1="115" y1="40" x2="175" y2="40"/>
    <line x1="115" y1="65" x2="160" y2="65"/>
    <line x1="215" y1="40" x2="275" y2="40"/>
    <line x1="215" y1="65" x2="260" y2="65"/>
  </g>
</svg>